<?xml version="1.0" encoding="UTF-8"?>
<svg id="Layer_1" data-name="Layer 1" xmlns="http://www.w3.org/2000/svg" viewBox="0 0 213.88 39.55">
  <defs>
    <style>
      .cls-1 {
        fill: #447752;
      }

      .cls-2 {
        fill: #292424;
      }
    </style>
  </defs>
  <g>
    <path class="cls-2" d="M58.61.27h2.1l9.21,13.43V.27h1.71v16.23h-1.75l-9.53-13.89v13.84h-1.73V.27Z"/>
    <path class="cls-2" d="M74.74,10.36V.27h1.75v10.02c0,3.36,1.36,4.9,4.56,4.9s4.46-1.51,4.46-4.85V.27h1.73v10.07c0,4.34-2.12,6.39-6.17,6.39-4.26,0-6.34-2.12-6.34-6.36Z"/>
    <path class="cls-2" d="M90.36.27h2.1l9.21,13.43V.27h1.71v16.23h-1.75l-9.53-13.89v13.84h-1.73V.27Z"/>
    <path class="cls-2" d="M105.82,8.33c0-5.02,3.1-8.33,7.87-8.33s7.75,3.34,7.75,8.38-3.1,8.33-7.87,8.33-7.75-3.34-7.75-8.38ZM119.61,8.46v-.19c0-4.12-2.29-6.7-5.95-6.7s-6.02,2.53-6.02,6.68v.19c0,4.12,2.27,6.73,5.95,6.73s6.02-2.56,6.02-6.7Z"/>
    <path class="cls-2" d="M127.9,11.36h1.85c.58,2.8,2.14,3.83,4.83,3.83,2.49,0,3.92-1.27,3.92-3.22s-2.07-2.49-4.51-2.95c-2.71-.51-5.46-1.41-5.46-4.39,0-2.61,2.17-4.63,5.39-4.63,3.41,0,5.58,1.58,6.19,5.31h-1.85c-.49-2.88-2.1-3.8-4.36-3.8s-3.66,1.24-3.66,3.05c0,1.95,2.22,2.51,4.63,2.95,2.71.49,5.36,1.39,5.36,4.39,0,2.78-2.05,4.8-5.63,4.8-3.95,0-6-1.75-6.7-5.34Z"/>
    <path class="cls-2" d="M147.3.24h2.1l5.92,16.21h-1.88l-1.85-5.24h-6.6l-1.9,5.24h-1.8L147.3.24ZM151.05,9.68l-2.75-7.6-2.78,7.6h5.53Z"/>
    <path class="cls-2" d="M157.24.27h2.1l9.21,13.43V.27h1.71v16.23h-1.75l-9.53-13.89v13.84h-1.73V.27Z"/>
    <path class="cls-2" d="M177.37,1.8h-5.41V.27h12.58v1.54h-5.43v14.65h-1.73V1.8Z"/>
    <path class="cls-2" d="M184.32,8.33c0-5.02,3.1-8.33,7.87-8.33s7.75,3.34,7.75,8.38-3.1,8.33-7.87,8.33-7.75-3.34-7.75-8.38ZM198.11,8.46v-.19c0-4.12-2.29-6.7-5.95-6.7s-6.02,2.53-6.02,6.68v.19c0,4.12,2.27,6.73,5.95,6.73s6.02-2.56,6.02-6.7Z"/>
    <path class="cls-2" d="M201.55,11.36h1.85c.58,2.8,2.14,3.83,4.83,3.83,2.49,0,3.92-1.27,3.92-3.22s-2.07-2.49-4.51-2.95c-2.71-.51-5.46-1.41-5.46-4.39,0-2.61,2.17-4.63,5.39-4.63,3.41,0,5.58,1.58,6.19,5.31h-1.85c-.49-2.88-2.1-3.8-4.36-3.8s-3.66,1.24-3.66,3.05c0,1.95,2.22,2.51,4.63,2.95,2.71.49,5.36,1.39,5.36,4.39,0,2.78-2.05,4.8-5.63,4.8-3.95,0-6-1.75-6.7-5.34Z"/>
  </g>
  <g>
    <path class="cls-2" d="M58.61,26.75h1.37v11.36h6.18v1.23h-7.55v-12.59Z"/>
    <path class="cls-2" d="M75.4,26.73h1.63l4.61,12.61h-1.46l-1.44-4.08h-5.14l-1.48,4.08h-1.4l4.68-12.61ZM78.32,34.07l-2.14-5.91-2.16,5.91h4.3Z"/>
    <path class="cls-2" d="M86.85,26.75h1.63l7.17,10.45v-10.45h1.33v12.63h-1.37l-7.41-10.81v10.77h-1.35v-12.59Z"/>
    <path class="cls-2" d="M103.19,26.75h4.08c4.27,0,6.43,2.07,6.43,6.33s-2.26,6.26-6.6,6.26h-3.91v-12.59ZM112.27,33.14v-.15c0-3.51-1.59-5.04-4.99-5.04h-2.71v10.2h2.56c3.43,0,5.14-1.59,5.14-5Z"/>
    <path class="cls-2" d="M118.68,35.38h1.44c.45,2.18,1.67,2.98,3.75,2.98,1.93,0,3.05-.99,3.05-2.5s-1.61-1.93-3.51-2.29c-2.1-.4-4.25-1.1-4.25-3.41,0-2.03,1.69-3.6,4.19-3.6,2.65,0,4.34,1.23,4.82,4.13h-1.44c-.38-2.24-1.63-2.96-3.39-2.96s-2.84.97-2.84,2.37c0,1.52,1.73,1.95,3.6,2.29,2.1.38,4.17,1.08,4.17,3.41,0,2.16-1.59,3.73-4.38,3.73-3.07,0-4.66-1.37-5.21-4.15Z"/>
    <path class="cls-2" d="M133.43,33.06c0-4.02,2.5-6.52,5.8-6.52,2.67,0,4.89,1.33,5.42,4.83l-1.44.02c-.44-2.84-2.07-3.62-3.98-3.62-2.52,0-4.38,1.93-4.38,5.21v.11c0,3.3,1.86,5.21,4.36,5.21,1.9,0,3.62-.81,4.02-3.7l1.44.02c-.49,3.54-2.79,4.91-5.5,4.91-3.26,0-5.74-2.52-5.74-6.48Z"/>
    <path class="cls-2" d="M153.48,26.73h1.63l4.61,12.61h-1.46l-1.44-4.08h-5.14l-1.48,4.08h-1.4l4.68-12.61ZM156.4,34.07l-2.14-5.91-2.16,5.91h4.3Z"/>
    <path class="cls-2" d="M164.93,26.75h3.83c3.39,0,5.02,1.19,5.02,3.79s-1.65,3.87-5.1,3.87h-2.39v4.93h-1.37v-12.59ZM172.38,30.54c0-1.9-1.04-2.64-3.62-2.64h-2.46v5.35h2.39c2.6,0,3.7-.74,3.7-2.71Z"/>
    <path class="cls-2" d="M179.3,26.75h1.35v12.59h-1.35v-12.59Z"/>
    <path class="cls-2" d="M186.88,26.75h1.63l7.17,10.45v-10.45h1.33v12.63h-1.37l-7.41-10.81v10.77h-1.35v-12.59Z"/>
    <path class="cls-2" d="M202.65,33.14c0-4.06,2.33-6.6,5.82-6.6,2.82,0,4.64,1.42,5.14,4.28l-1.42.02c-.4-2.18-1.69-3.09-3.75-3.09-2.65,0-4.38,1.99-4.38,5.29v.13c0,3.2,1.71,5.16,4.4,5.16,2.26,0,3.77-1.59,3.77-3.64v-.06h-3.45v-1.18h4.83v5.88h-1.21v-2.18c-.66,1.46-2.05,2.39-4.04,2.39-3.45,0-5.71-2.46-5.71-6.41Z"/>
  </g>
  <g>
    <path class="cls-1" d="M28.41,11.78c6.21-1.98,9.09,2.68,9.65,4.14,1.33,3.52-.97,6.8-.97,6.8,1.53.92,2.26,2.24,2,3.58-.25,1.26-1.24,3.03-3.38,3.21-.98.08-1.99-.38-2.83-.66s-1.04-.15-1.22-.02c-.25.17-.45.35-.76.48-1.28.55-2.3-.19-3.51-.33-1.97-.22-4.35.58-6.35.68-1.54.08-1.91.1-2.95,0-1.7-.08-3.66-.67-5.42-.71-.24,0-.49,0-.72.03-.94.1-1.78.57-2.7.52-.32,0-.65-.04-1-.19-.3-.13-.46-.42-.75-.48-.81-.16-2.93.84-4.03.68-1.48-.2-2.71-1.22-3.25-2.76s-.11-3.04,1.36-4.02c-.95-1.18-1.85-3.99.18-6.78,1.21-1.66,2.93-1.69,4.32-1.77-.61-1.36-.69-2.39.01-3.61.77-1.34,2.48-2.35,4.8-1.52.36-2,1.38-3.18,3.18-3.26,2.05-.1,2.97,1.05,3.48,1.74,1.58-2.21,5.58-3.83,8.79-2,2.91,1.66,2.58,4.3,2.08,6.24Z"/>
    <path class="cls-2" d="M14.98,26.93c-.76-.28-2.66-3.77-3.07-4.37-.17-.24-.45-.39-.74-.41-.28-.02-.66-.03-.92.04.52,1.24,2.73,4.78,3.23,6.04,1.04,2.66,2.27,5.34,1.07,8-.15.34-2.08,1.99-1.96,2.13,2.42.53,11.69.76,14.1.16-.39-.45-1.37-1.45-2.46-1.53-1.08-.08-1.63-1.42-1.81-2.06-1.01-3.65,3.51-11.44,5.62-14.38h-1.8c-.31.04-.6.2-.8.44,0,0-3.31,4.8-4.16,6.01-.67.95-2.14,2.2-2.14,2.2-1.53.46-3.62-5.35-2.68-6.04-.25-.05-.67.03-.98.11-.26.07-.47.24-.58.48-.4.92.03,2.52.08,3.17Z"/>
    <polygon class="cls-2" points="34.56 6.47 33.4 6.47 33.4 1.4 5.72 1.4 5.72 6.47 4.56 6.47 4.56 .25 34.56 .25 34.56 6.47"/>
    <polygon class="cls-2" points="34.56 39.34 4.56 39.34 4.56 33.12 5.72 33.12 5.72 38.19 33.4 38.19 33.4 33.12 34.56 33.12 34.56 39.34"/>
  </g>
</svg>